<svg version="1.0" xmlns="http://www.w3.org/2000/svg" width="300.000000pt" height="291.000000pt" viewBox="0 0 300.000000 291.000000" preserveAspectRatio="xMidYMid meet">
<g transform="translate(0.000000,291.000000) scale(0.100000,-0.100000)" fill="#030303" stroke="none">
<path d="M1735 2040 l-280 -280 -275 275 c-151 151 -280 275 -285 275 -6 0
-77 -66 -158 -148 l-147 -147 275 -275 c151 -151 275 -279 275 -285 0 -5 -125
-135 -277 -287 l-277 -277 152 -153 151 -153 278 278 c153 152 283 277 288
277 6 0 134 -124 285 -275 l275 -275 147 147 c82 81 148 152 148 157 0 5 -124
133 -275 284 l-276 276 281 281 280 280 -153 153 -152 152 -280 -280z" stroke-width="20"></path>
</g>
<g transform="translate(0.000000,291.000000) scale(0.100000,-0.100000)" fill="#989898" stroke="none">
</g>
</svg>